# This file uses centimeters as units for non-parametric coordinates.

mtllib cube_updated.mtl
g default
v -0.500000 -0.500000 0.500000
v 0.500000 -0.500000 0.500000
v -0.500000 0.500000 0.500000
v 0.500000 0.500000 0.500000
v -0.500000 0.500000 -0.500000
v 0.500000 0.500000 -0.500000
v -0.500000 -0.500000 -0.500000
v 0.500000 -0.500000 -0.500000
vt 0.335077 0.505109
vt 0.661528 0.504413
vt 0.662570 0.992917
vt 0.336119 0.993613
vt 0.002981 0.010636
vt 0.329432 0.011233
vt 0.328540 0.499736
vt 0.002088 0.499140
vt 0.334965 0.008599
vt 0.661417 0.008349
vt 0.661790 0.496854
vt 0.335339 0.497104
vt 0.671244 0.006326
vt 0.997691 0.007979
vt 0.995218 0.496477
vt 0.668771 0.494825
vt 0.002668 0.504295
vt 0.329118 0.505292
vt 0.327626 0.993795
vt 0.001176 0.992798
vt 0.994873 0.993470
vt 0.668421 0.993124
vt 0.668940 0.504619
vt 0.995392 0.504966
vn 0.000000 0.000000 1.000000
vn 0.000000 0.000000 1.000000
vn 0.000000 0.000000 1.000000
vn 0.000000 0.000000 1.000000
vn 0.000000 1.000000 0.000000
vn 0.000000 1.000000 0.000000
vn 0.000000 1.000000 0.000000
vn 0.000000 1.000000 0.000000
vn 0.000000 0.000000 -1.000000
vn 0.000000 0.000000 -1.000000
vn 0.000000 0.000000 -1.000000
vn 0.000000 0.000000 -1.000000
vn 0.000000 -1.000000 0.000000
vn 0.000000 -1.000000 0.000000
vn 0.000000 -1.000000 0.000000
vn 0.000000 -1.000000 0.000000
vn 1.000000 0.000000 0.000000
vn 1.000000 0.000000 0.000000
vn 1.000000 0.000000 0.000000
vn 1.000000 0.000000 0.000000
vn -1.000000 0.000000 0.000000
vn -1.000000 0.000000 0.000000
vn -1.000000 0.000000 0.000000
vn -1.000000 0.000000 0.000000
s off
g cube_updated
usemtl lambert2SG
f 1/17/1 2/18/2 4/19/3 3/20/4
f 3/9/5 4/10/6 6/11/7 5/12/8
f 5/21/9 6/22/10 8/23/11 7/24/12
f 7/13/13 8/14/14 2/15/15 1/16/16
f 2/1/17 8/2/18 6/3/19 4/4/20
f 7/5/21 1/6/22 3/7/23 5/8/24
